# xmcd
#
# Track frame offsets:
#	150
#	16819
#	29826
#	46339
#	66739
#	88339
#	105139
#	122428
#	139528
#	155878
#
# Disc length: 2296 seconds
#
# Revision: 1
# Processed by: cddbd v1.5.2PL0 Copyright (c) Steve Scherf et al.
# Submitted via: audiograbber 1.83.01
#
DISCID=8608f60a
DTITLE=Manitoba Hal - Come The Ruination
DYEAR=2006
DGENRE=Blues
TTITLE0=Estelle
TTITLE1=Freight Train
TTITLE2=Keep On Singing
TTITLE3=Walls Of Jerico
TTITLE4=Call Me Blue
TTITLE5=King Of Th e World
TTITLE6=Whiskey Blues
TTITLE7=Keep On Singing (live)
TTITLE8=Sweet Summer Rain
TTITLE9=Line and Pole
EXTD=
EXTT0=
EXTT1=
EXTT2=
EXTT3=
EXTT4=
EXTT5=
EXTT6=
EXTT7=
EXTT8=
EXTT9=
PLAYORDER=
